<svg width="1223" height="248" viewBox="0 0 1223 248" fill="none" xmlns="http://www.w3.org/2000/svg">
<mask id="mask0" mask-type="alpha" maskUnits="userSpaceOnUse" x="0" y="0" width="1223" height="248">
<rect width="1223" height="248" rx="24" fill="#5848BB"/>
</mask>
<g mask="url(#mask0)">
<rect width="1223" height="248" rx="24" fill="#5848BB"/>
<path fill-rule="evenodd" clip-rule="evenodd" d="M1116 290C1206.02 290 1279 217.022 1279 127C1279 36.9776 1206.02 -36 1116 -36C1025.98 -36 953 36.9776 953 127C953 217.022 1025.98 290 1116 290ZM1116 202.646C1157.78 202.646 1191.65 168.778 1191.65 127C1191.65 85.2216 1157.78 51.3536 1116 51.3536C1074.22 51.3536 1040.35 85.2216 1040.35 127C1040.35 168.778 1074.22 202.646 1116 202.646Z" fill="#4232A7"/>
<path fill-rule="evenodd" clip-rule="evenodd" d="M860 181C889.823 181 914 156.823 914 127C914 97.1766 889.823 73 860 73C830.177 73 806 97.1766 806 127C806 156.823 830.177 181 860 181ZM860 152.061C873.841 152.061 885.061 140.841 885.061 127C885.061 113.159 873.841 101.939 860 101.939C846.159 101.939 834.939 113.159 834.939 127C834.939 140.841 846.159 152.061 860 152.061Z" fill="#4232A7"/>
<path fill-rule="evenodd" clip-rule="evenodd" d="M1116 175.63C1142.86 175.63 1164.63 153.858 1164.63 127C1164.63 100.142 1142.86 78.3702 1116 78.3702C1089.14 78.3702 1067.37 100.142 1067.37 127C1067.37 153.858 1089.14 175.63 1116 175.63ZM1116 149.569C1128.46 149.569 1138.57 139.464 1138.57 127C1138.57 114.536 1128.46 104.431 1116 104.431C1103.54 104.431 1093.43 114.536 1093.43 127C1093.43 139.464 1103.54 149.569 1116 149.569Z" fill="#4232A7"/>
</g>
</svg>
