<svg width="16" height="16" viewBox="0 0 16 16" fill="none" xmlns="http://www.w3.org/2000/svg">
<path d="M3.55598 3.03001C4.24047 2.41686 5.04444 1.952 5.91732 1.66467C6.1669 1.97736 6.48376 2.22976 6.84433 2.40312C7.2049 2.57648 7.5999 2.66633 7.99998 2.66601C8.40006 2.66633 8.79507 2.57648 9.15564 2.40312C9.51621 2.22976 9.83306 1.97736 10.0826 1.66467C10.9555 1.952 11.7595 2.41686 12.444 3.03001C12.2983 3.40231 12.2384 3.80263 12.2686 4.20127C12.2989 4.5999 12.4185 4.98661 12.6186 5.33267C12.8184 5.6794 13.0937 5.97664 13.4242 6.20229C13.7546 6.42793 14.1317 6.57618 14.5273 6.63601C14.7143 7.53527 14.7143 8.46341 14.5273 9.36267C13.754 9.48134 13.0406 9.93601 12.6186 10.666C12.4184 11.0122 12.2987 11.399 12.2685 11.7977C12.2382 12.1965 12.2982 12.5969 12.444 12.9693C11.7594 13.5822 10.9555 14.0469 10.0826 14.334C9.833 14.0214 9.51611 13.7692 9.15555 13.5959C8.79498 13.4227 8.40001 13.3329 7.99998 13.3333C7.5999 13.333 7.2049 13.4229 6.84433 13.5962C6.48376 13.7696 6.1669 14.022 5.91732 14.3347C5.04449 14.0475 4.24053 13.5829 3.55598 12.97C3.70175 12.5976 3.76174 12.1972 3.7315 11.7984C3.70126 11.3996 3.58157 11.0128 3.38132 10.6667C3.18151 10.3201 2.90615 10.023 2.5757 9.79743C2.24526 9.5719 1.86823 9.42376 1.47265 9.36401C1.28552 8.46452 1.28552 7.53616 1.47265 6.63667C1.86829 6.57685 2.24536 6.4286 2.57581 6.20295C2.90626 5.97731 3.18158 5.68007 3.38132 5.33334C3.58147 4.98727 3.7011 4.60057 3.73134 4.20193C3.76158 3.8033 3.70164 3.40297 3.55598 3.03067V3.03001ZM8.99998 9.73134C9.22927 9.60098 9.43051 9.42654 9.59212 9.21809C9.75372 9.00963 9.87249 8.77127 9.9416 8.51672C10.0107 8.26218 10.0288 7.99648 9.99479 7.73492C9.96079 7.47336 9.87539 7.22111 9.74351 6.99268C9.61163 6.76426 9.43586 6.56418 9.22634 6.40397C9.01682 6.24375 8.77767 6.12656 8.52267 6.05914C8.26768 5.99172 8.00186 5.97541 7.74053 6.01114C7.4792 6.04688 7.22752 6.13394 6.99998 6.26734C6.54437 6.53444 6.2129 6.97091 6.07791 7.4815C5.94291 7.99209 6.01536 8.53535 6.27943 8.99273C6.54351 9.4501 6.97777 9.78446 7.48745 9.92284C7.99714 10.0612 8.54087 9.99237 8.99998 9.73134Z" fill="#1E2326"/>
</svg>
