<svg width="64" height="64" viewBox="0 0 64 64" fill="none" xmlns="http://www.w3.org/2000/svg">
<rect width="64" height="64" rx="16" fill="url(#paint0_linear)"/>
<g clip-path="url(#clip0)">
<path d="M39.4999 17.8239H36.6874L33.8749 19.6989L31.0624 17.8239H28.2499C27.7248 17.8239 27.3124 18.2364 27.3124 18.7614V30.0114C27.3124 30.5365 27.7248 30.9489 28.2499 30.9489H39.4999C40.0249 30.9489 40.4374 30.5365 40.4374 30.0114V18.7614C40.4374 18.2364 40.0249 17.8239 39.4999 17.8239Z" fill="url(#paint1_linear)"/>
<path d="M47.3974 32.3527C45.8859 31.7738 44.1752 32.1381 43.0307 33.2826L39.2377 37.0756C38.3524 37.9609 37.175 38.4489 35.9225 38.4489H30.6117C30.0935 38.4489 29.6742 38.0296 29.6742 37.5114C29.6742 36.9932 30.0935 36.5739 30.6117 36.5739H35.965C37.6049 36.5739 39.104 35.6474 39.8373 34.1806C40.149 33.5572 39.6957 32.8239 38.9988 32.8239H28.3027C27.4861 32.8239 26.6804 33.0382 25.9782 33.441L16.4769 38.7969C16.2498 38.9251 16.0859 39.142 16.0255 39.3956C15.965 39.6492 16.0127 39.9166 16.1573 40.1336L19.9073 45.7586C20.0877 46.0296 20.3852 46.1761 20.6882 46.1761C20.8622 46.1761 21.038 46.1276 21.1954 46.0268L27.1372 42.199H37.4752C38.7185 42.199 39.9109 41.7051 40.7901 40.8259L47.7249 33.8911C48.2051 33.4109 48.0315 32.5956 47.3974 32.3527ZM31.5124 24.2552C31.7749 24.424 32.1311 24.424 32.4123 24.2927L33.8749 23.5614L35.3374 24.2927C35.6858 24.442 36.0065 24.3994 36.2374 24.2552C36.5185 24.0677 36.6874 23.7677 36.6874 23.4489V17.8239H31.0624V23.4489C31.0624 23.7677 31.2312 24.0677 31.5124 24.2552Z" fill="url(#paint2_linear)"/>
</g>
<defs>
<linearGradient id="paint0_linear" x1="32" y1="0" x2="32" y2="64" gradientUnits="userSpaceOnUse">
<stop stop-color="#FFFBCA"/>
<stop offset="1" stop-color="#F2911F" stop-opacity="0.98"/>
</linearGradient>
<linearGradient id="paint1_linear" x1="33.8749" y1="30.9489" x2="33.8749" y2="17.8239" gradientUnits="userSpaceOnUse">
<stop stop-color="#FFE59A"/>
<stop offset="1" stop-color="#FFFFD5"/>
</linearGradient>
<linearGradient id="paint2_linear" x1="31.9999" y1="46.176" x2="31.9999" y2="17.8239" gradientUnits="userSpaceOnUse">
<stop stop-color="#FD5900"/>
<stop offset="1" stop-color="#FFDE00"/>
</linearGradient>
<clipPath id="clip0">
<rect width="32" height="32" fill="white" transform="translate(16 16)"/>
</clipPath>
</defs>
</svg>
