<svg width="64" height="64" viewBox="0 0 64 64" fill="none" xmlns="http://www.w3.org/2000/svg">
<rect width="64" height="64" rx="16" fill="url(#paint0_linear)"/>
<g clip-path="url(#clip0)">
<path d="M35.125 22.375H28.875C28.3572 22.375 27.9375 21.9552 27.9375 21.4375V16.9375C27.9375 16.4197 28.3572 16 28.875 16H35.125C35.6427 16 36.0625 16.4197 36.0625 16.9375V21.4375C36.0625 21.9552 35.6427 22.375 35.125 22.375Z" fill="#E2E7FA"/>
<path d="M35.125 16H32V22.375H35.125C35.6428 22.375 36.0625 21.9552 36.0625 21.4375V16.9375C36.0625 16.4197 35.6428 16 35.125 16Z" fill="#C5D2E5"/>
<path d="M38.875 32.7059H25.125C24.6072 32.7059 24.1875 32.2861 24.1875 31.7684V21.4375C24.1875 20.9197 24.6072 20.5 25.125 20.5H38.875C39.3927 20.5 39.8125 20.9197 39.8125 21.4375V31.7684C39.8125 32.2861 39.3927 32.7059 38.875 32.7059Z" fill="#F5F5FF"/>
<path d="M38.875 20.5H32V32.7059H38.875C39.3927 32.7059 39.8125 32.2861 39.8125 31.7684V21.4375C39.8125 20.9197 39.3927 20.5 38.875 20.5Z" fill="#E2E7FA"/>
<path d="M32 26.125C32.5178 26.125 32.9375 25.7053 32.9375 25.1875C32.9375 24.6697 32.5178 24.25 32 24.25C31.4822 24.25 31.0625 24.6697 31.0625 25.1875C31.0625 25.7053 31.4822 26.125 32 26.125Z" fill="#9DDFF6"/>
<path d="M35.75 26.125C36.2678 26.125 36.6875 25.7053 36.6875 25.1875C36.6875 24.6697 36.2678 24.25 35.75 24.25C35.2322 24.25 34.8125 24.6697 34.8125 25.1875C34.8125 25.7053 35.2322 26.125 35.75 26.125Z" fill="#6BA7FF"/>
<path d="M28.25 26.125C28.7678 26.125 29.1875 25.7053 29.1875 25.1875C29.1875 24.6697 28.7678 24.25 28.25 24.25C27.7322 24.25 27.3125 24.6697 27.3125 25.1875C27.3125 25.7053 27.7322 26.125 28.25 26.125Z" fill="#9DDFF6"/>
<path d="M32.9375 25.1875C32.9375 24.6697 32.5178 24.25 32 24.25V26.125C32.5178 26.125 32.9375 25.7053 32.9375 25.1875Z" fill="#6BA7FF"/>
<path d="M39.5245 42.375H24.4658C24.0766 42.375 23.7279 42.1346 23.5895 41.7708L20.4988 33.6458C20.3181 33.1711 20.5484 32.639 21.0181 32.4456L31.6431 28.0706C31.8717 27.9765 32.1283 27.9765 32.3569 28.0706L42.9819 32.4456C43.4519 32.6392 43.6821 33.1719 43.5009 33.6468L40.4005 41.7717C40.2618 42.135 39.9133 42.375 39.5245 42.375Z" fill="#6B61B1"/>
<path d="M39.5246 42.375C39.9134 42.375 40.2619 42.135 40.4005 41.7718L43.5009 33.6468C43.6821 33.1719 43.4519 32.6392 42.9819 32.4457L32.3569 28.0707C32.2426 28.0236 32.1213 28.0001 32 28.0001V42.3751H39.5246V42.375Z" fill="#453D81"/>
<path d="M43.2935 48C42.0686 48 41.4156 47.5668 40.8909 47.2188C40.4653 46.9364 40.1841 46.75 39.5246 46.75C38.8658 46.75 38.585 46.9364 38.1599 47.2186C37.6353 47.5667 36.9826 48 35.7582 48C34.5344 48 33.8821 47.5666 33.3579 47.2184C32.9333 46.9363 32.6529 46.75 31.9951 46.75C31.3367 46.75 31.056 46.9364 30.6311 47.2185C30.1067 47.5667 29.4541 48 28.2299 48C27.0059 48 26.3535 47.5666 25.8292 47.2184C25.4044 46.9363 25.1239 46.75 24.4658 46.75C23.8078 46.75 23.5271 46.9363 23.1024 47.2184C22.5781 47.5666 21.9256 48 20.7016 48C19.4777 48 18.8252 47.5666 18.3009 47.2184C17.8762 46.9363 17.5956 46.75 16.9375 46.75C16.4197 46.75 16 46.3302 16 45.8125V41.4375C16 40.9197 16.4197 40.5 16.9375 40.5C18.1615 40.5 18.8139 40.9334 19.3382 41.2816C19.763 41.5637 20.0436 41.75 20.7016 41.75C21.3597 41.75 21.6403 41.5637 22.065 41.2816C22.5893 40.9334 23.2417 40.5 24.4657 40.5C25.6897 40.5 26.3422 40.9334 26.8665 41.2816C27.2913 41.5637 27.5718 41.75 28.2299 41.75C28.8882 41.75 29.1689 41.5636 29.5939 41.2815C30.1182 40.9333 30.7708 40.5 31.995 40.5C33.2188 40.5 33.8712 40.9334 34.3954 41.2816C34.8199 41.5637 35.1004 41.75 35.7581 41.75C36.4169 41.75 36.6978 41.5636 37.1228 41.2814C37.6474 40.9333 38.3001 40.5 39.5245 40.5C40.7494 40.5 41.4025 40.9332 41.9272 41.2812C42.3528 41.5636 42.6339 41.75 43.2934 41.75C43.9531 41.75 44.2342 41.5636 44.6597 41.2812C45.1845 40.9332 45.8376 40.5 47.0624 40.5C47.5801 40.5 47.9999 40.9197 47.9999 41.4375V45.8125C47.9999 46.3302 47.5801 46.75 47.0624 46.75C46.4028 46.75 46.1217 46.9364 45.6961 47.2188C45.1715 47.5668 44.5184 48 43.2935 48Z" fill="#9DDFF6"/>
<path d="M47.0626 40.5C45.8377 40.5 45.1846 40.9332 44.6599 41.2812C44.2343 41.5636 43.9532 41.75 43.2936 41.75C42.6341 41.75 42.3529 41.5636 41.9274 41.2812C41.4026 40.9332 40.7496 40.5 39.5247 40.5C38.3002 40.5 37.6476 40.9333 37.123 41.2814C36.6979 41.5636 36.4171 41.75 35.7583 41.75C35.1006 41.75 34.8201 41.5637 34.3956 41.2816C33.8721 40.9339 33.2206 40.5013 32.0001 40.5001V46.7501C32.6542 46.7511 32.9345 46.9371 33.358 47.2184C33.8822 47.5666 34.5346 48.0001 35.7583 48.0001C36.9827 48.0001 37.6354 47.5667 38.16 47.2186C38.5851 46.9364 38.8659 46.7501 39.5247 46.7501C40.1843 46.7501 40.4654 46.9365 40.891 47.2188C41.4157 47.5669 42.0687 48.0001 43.2936 48.0001C44.5185 48.0001 45.1716 47.5669 45.6963 47.2188C46.1219 46.9365 46.4031 46.7501 47.0626 46.7501C47.5803 46.7501 48.0001 46.3303 48.0001 45.8126V41.4376C48.0001 40.9198 47.5803 40.5 47.0626 40.5Z" fill="#6BA7FF"/>
</g>
<defs>
<linearGradient id="paint0_linear" x1="32" y1="117" x2="32" y2="-62" gradientUnits="userSpaceOnUse">
<stop stop-color="#925DF1"/>
<stop offset="1" stop-color="#DCC9FF"/>
</linearGradient>
<clipPath id="clip0">
<rect width="32" height="32" fill="white" transform="translate(16 16)"/>
</clipPath>
</defs>
</svg>
