<svg width="64" height="64" viewBox="0 0 64 64" fill="none" xmlns="http://www.w3.org/2000/svg">
<rect width="64" height="64" rx="16" fill="url(#paint0_linear)"/>
<path d="M31.9407 22.1941L33.1579 23.0058V18.6843H29.7894V23.0058L31.0066 22.1941C31.2894 22.005 31.6583 22.005 31.9407 22.1941Z" fill="#FFCF00"/>
<path d="M36.5264 41.4211C36.531 37.2372 39.9215 33.8468 44.1054 33.8422C44.3872 33.8545 44.6685 33.8829 44.9473 33.9273V19.5262C44.9473 19.0612 44.5704 18.6843 44.1054 18.6843H34.842V24.5788C34.842 24.8894 34.6712 25.175 34.3973 25.3214C34.1235 25.4679 33.7913 25.4519 33.5329 25.2795L31.4738 23.9072L29.4144 25.2798C29.1559 25.4519 28.8238 25.4679 28.55 25.3214C28.2761 25.175 28.1053 24.8894 28.1053 24.5788V18.6843H18.8422C18.3772 18.6843 18 19.0612 18 19.5262V41.4211C18 41.8862 18.3772 42.263 18.8422 42.263H36.6115C36.5671 41.9843 36.5388 41.703 36.5264 41.4211Z" fill="#2C2D96"/>
<path d="M44.1053 35.5263C40.8496 35.5263 38.2104 38.1655 38.2104 41.4211C38.2104 44.6765 40.8496 47.3157 44.1053 47.3157C47.3606 47.3157 49.9998 44.6765 49.9998 41.4211C49.9961 38.167 47.3591 35.5303 44.1053 35.5263ZM45.9636 41.1744L44.2795 42.8585C43.9508 43.1876 43.4176 43.1876 43.0888 42.8585L42.2466 42.0163C41.9275 41.6861 41.9321 41.1609 42.2568 40.8358C42.5819 40.5111 43.107 40.5065 43.4373 40.8257L43.684 41.0724L44.773 39.9834C45.1035 39.6646 45.6287 39.6689 45.9535 39.9939C46.2782 40.3187 46.2828 40.8438 45.9636 41.1744Z" fill="#FFCF00"/>
<defs>
<linearGradient id="paint0_linear" x1="32" y1="0" x2="32" y2="64" gradientUnits="userSpaceOnUse">
<stop stop-color="#B3D8FA"/>
<stop offset="1" stop-color="#58A8F1" stop-opacity="0.87"/>
</linearGradient>
</defs>
</svg>
